<?xml version="1.0" encoding="UTF-8"?>
<svg id="Layer_2" data-name="Layer 2" xmlns="http://www.w3.org/2000/svg" xmlns:xlink="http://www.w3.org/1999/xlink" viewBox="0 0 912.53 568.8">
  <defs>
    <style>
      .cls-1 {
        fill: #383839;
      }

      .cls-2 {
        fill: url(#Orange_Yellow);
      }

      .cls-3 {
        fill: url(#New_Gradient_Swatch_1);
      }

      .cls-4 {
        fill: url(#New_Gradient_Swatch_1-5);
      }

      .cls-5 {
        fill: url(#New_Gradient_Swatch_1-2);
      }

      .cls-6 {
        fill: url(#New_Gradient_Swatch_1-3);
      }

      .cls-7 {
        fill: url(#New_Gradient_Swatch_1-6);
      }

      .cls-8 {
        fill: url(#New_Gradient_Swatch_1-4);
      }

      .cls-9 {
        fill: url(#Orange_Yellow-2);
      }
    </style>
    <linearGradient id="New_Gradient_Swatch_1" data-name="New Gradient Swatch 1" x1="197.99" y1="163.4" x2="586.89" y2="163.4" gradientUnits="userSpaceOnUse">
      <stop offset="0" stop-color="#573cff"/>
      <stop offset="1" stop-color="#82acff"/>
    </linearGradient>
    <linearGradient id="Orange_Yellow" data-name="Orange, Yellow" x1="152.8" y1="172.97" x2="766.5" y2="172.97" gradientUnits="userSpaceOnUse">
      <stop offset="0" stop-color="#ffff25"/>
      <stop offset=".06" stop-color="#fee716"/>
      <stop offset=".13" stop-color="#fed50a"/>
      <stop offset=".2" stop-color="#fec903"/>
      <stop offset=".28" stop-color="#fec601"/>
      <stop offset=".67" stop-color="#fb7b1e"/>
      <stop offset=".89" stop-color="#f9441b"/>
      <stop offset="1" stop-color="#f71818"/>
    </linearGradient>
    <linearGradient id="New_Gradient_Swatch_1-2" data-name="New Gradient Swatch 1" x1="775.12" y1="337.2" x2="907.51" y2="337.2" xlink:href="#New_Gradient_Swatch_1"/>
    <linearGradient id="New_Gradient_Swatch_1-3" data-name="New Gradient Swatch 1" x1="207.92" y1="513.92" x2="284.3" y2="513.92" xlink:href="#New_Gradient_Swatch_1"/>
    <linearGradient id="New_Gradient_Swatch_1-4" data-name="New Gradient Swatch 1" x1="474.48" y1="502.61" x2="546.84" y2="502.61" xlink:href="#New_Gradient_Swatch_1"/>
    <linearGradient id="New_Gradient_Swatch_1-5" data-name="New Gradient Swatch 1" x1="75.68" y1="362.26" x2="912.53" y2="362.26" xlink:href="#New_Gradient_Swatch_1"/>
    <linearGradient id="New_Gradient_Swatch_1-6" data-name="New Gradient Swatch 1" x1="0" y1="560.46" x2="912.53" y2="560.46" xlink:href="#New_Gradient_Swatch_1"/>
    <linearGradient id="Orange_Yellow-2" data-name="Orange, Yellow" x1="729.61" y1="304.35" x2="742.68" y2="304.35" gradientTransform="translate(327.75 -379.57) rotate(36.69)" xlink:href="#Orange_Yellow"/>
  </defs>
  <g id="Layer_1-2" data-name="Layer 1">
    <g>
      <path class="cls-3" d="M586.89,16.44v117.76c-9.38,9.68-19.07,19.02-29.09,28-1.4,1.26-2.81,2.51-4.23,3.76-13.5,11.86-27.57,23.06-42.31,33.51V107.82l-66.36-43.78c-4.75-3.14-11.06,.31-11.06,6.06V246.59c-10.9,5.83-21.88,11.4-32.95,16.69-1.4,.67-2.8,1.33-4.2,2-15.65,7.37-31.46,14.19-47.46,20.45v-123.18l-66.37-43.78c-4.75-3.14-11.06,.31-11.06,6.06v186.41c-24.23,6.47-48.83,11.68-73.81,15.57V144.35c0-6.95,4.31-13.14,10.79-15.47L565.27,.96c10.54-3.79,21.61,4.14,21.61,15.48Z"/>
      <path class="cls-2" d="M766.18,10.42c-7.76,51.22-15.16,102.48-22.75,153.72-.3,2.06-1.19,4.03-2.1,7.01-8.66-4.68-14.84-11.4-20.85-17.81-7.81-8.34-12.83-8.47-21.23,.27-33.01,34.36-68.72,65.48-108.11,91.2-21.12,13.78-43.28,26.01-66.67,36.35-2.98,1.32-5.97,2.61-8.95,3.9-25.57,10.94-51.37,20.46-77.42,28.5-27.93,8.6-56.13,15.47-84.61,20.51-25.59,4.51-51.4,7.56-77.43,9.04-24.41,1.38-49,1.39-73.81-.03-16.39-.95-32.88-2.51-49.44-4.73,16.65-1.38,33.12-3.34,49.44-5.88,24.98-3.89,49.59-9.1,73.81-15.57,11.24-3.02,22.38-6.3,33.45-9.85,2.3-.74,4.58-1.48,6.87-2.24,12.47-4.13,24.85-8.6,37.11-13.41,15.99-6.26,31.8-13.08,47.46-20.45,1.4-.67,2.8-1.33,4.2-2,11.07-5.29,22.05-10.86,32.95-16.69,16.7-8.94,33.24-18.51,49.57-28.68,2.31-1.43,4.63-2.9,6.93-4.36,.04-.03,.1-.06,.14-.1,7.07-4.5,13.99-9.15,20.78-13.98,14.73-10.45,28.81-21.64,42.31-33.51,1.42-1.25,2.82-2.5,4.23-3.76,10.02-8.98,19.71-18.32,29.09-28,2.55-2.63,5.08-5.27,7.58-7.93,14.65-15.61,28.55-32.02,41.81-49.05-1.84-5.17-5.36-10.32-9.03-13.72-20.66-19.24-20.29-19.58,6.17-28.01,25.7-8.19,51.4-16.36,77.09-24.59,13.78-4.41,27.56-8.84,41.33-13.28,7.11-2.3,11.68-3.25,10.09,7.14Z"/>
      <path class="cls-5" d="M896.77,318.04c-18.32,38.35-65.63,50.28-83.04,4.59-2.36-5.97-3.56-12.4-5.23-18.63-.89-3.32-1.02-7.02-2.59-9.96-3.84-7.19-10.85-11.02-18.32-9.17-6.88,1.71-2.81,8.8-2.68,13.4,.38,13.59-1.37,26.67-7.02,39.12-1.58,3.48-3.5,6.68-2.49,11.01,5.75,24.76,37.69,45.61,63.09,40.94,47.3-8.68,73.75-44.75,68.32-97.2-4.15,10.79-6.8,18.47-10.04,25.9Z"/>
      <path class="cls-6" d="M229.44,525.2c-2.57-4.91-6.27-9.24-9.57-13.77-3.05-4.17-6.36-8.17-9.35-12.39-4.29-6.06-3.62-10.09,4.58-11.57,10.64-1.92,21.23-4.53,30.82-9.57,19.83-10.71,3.72,20.04,16.49,42.89,3.68,6.83,3.73,11.55-3.08,16.8,9.24-3.53,14.18,.16,17.81,7.14,1.8,3.46,4.07,5.96,7.15,7.38h-56.36c10.63-2.71,10.26-10.16,1.49-26.92Z"/>
      <path class="cls-8" d="M487.87,543.85c-12.9-13.03-14.08-28.33-11.84-45.34,1.11-8.4-.04-17.27-1.31-25.76-1.19-7.96,1.92-10.73,9.28-11.92,10.19-1.66,20.38-3.8,30.31-6.63,8.26-2.34,11.2-1.5,8.69,8-4.65,17.67-6.9,36.02-3.08,53.86,2.02,9.47,3.41,16.09-7.59,20.41,14.23-4.84,23.09,1.21,30.19,11.89,1.22,1.84,2.7,3.02,4.31,3.76h-56.91c2.41-1.63,1.56-4.63-2.06-8.27Z"/>
      <path class="cls-4" d="M912.53,218.33v12.63c-.03,.35-.09,.71-.13,1.06-4.95,39.62-45.19,83.22-86.88,61.73-10.52-4.95-20.52-11.2-31.95-13.95-14.72-3.56-19.24,1.28-15.37,15.98,5.69,21.57,.82,41.1-15.94,55.18-19.07,16.01-33.49,34.53-42.09,57.72-2.98,8-9.51,10.69-17.21,11.51-20.92,2.24-37.75-12.09-38.83-33.18-.58-11.25-1.35-22.42-7.59-32.31-4.77-3.53-6.34-7.76-3.35-13.35,5.04-9.45,9.47-19.27,18.25-26.08,1.94-1.7,3.87-3.42,5.82-5.12,1.48-2.53,5.69-2.2,6.22-6.68-3.8,.72-7.37,1.39-10.93,2.07-31.9,15.21-44.82,42.55-48.35,75.84-.82,7.75,2.51,14.28,6.4,20.61,27.43,42.79,74.63,66.19,108.17,103.43q12.94,14.23-4.1,21.4c-1.92,.81-3.8,1.67-5.45,4.5,4.34-.43,8.95-.07,12.99-1.4,11.99-4,18.31,1.09,20.17,12.36,.87,5.25,2.84,8.27,5.97,9.86h-76.83c3.65-2.43,3.34-8.86,6.22-25.39,1.67-9.69-.71-14.83-11.37-17.21-23.56-5.29-47.02-11.24-69.75-19.6-6.19-2.28-13.06-4.5-15.65-10.69-10.67-25.43-33.69-35.83-55.9-47.43-16.22-8.49-30.98-18.8-41.67-34.12-6.97-9.96-9.21-21.86-12.73-33.52-1.29,.92-1.77,1.08-1.86,1.35-5.85,26.79,3.65,50.58,23.83,68.57,3.25,2.91,9.51,5.66,7.55,10.74-1.79,4.64-8.32,3.52-12.84,4.2-16.45,2.46-32.64-.01-48.89-2.68-29.94-4.95-55.73-20.45-83.23-31.66-13.71-5.58-29.8-7.76-20.21-30.87-1.66,.26-3.34,.5-5,.75-12.79,19.34-26.03,38.39-38.2,58.12-7.15,11.55-16.56,17.37-29.83,20.02-44.85,8.97-89.49,18.97-134.27,28.37-5.59,1.18-9.58,1.82-8.34,9.54,3.29,20.63,2.94,20.68-16.9,29.31-1.86,.81-4.36,.84-5.04,4.67,5.25-.7,10.4-.71,15.13-2.14,10.43-3.15,16.66-.74,17.64,10.98,.38,4.6,2.16,7.25,4.97,8.69H75.68c4.07-1.92,6.4-5.8,7.54-12.74,2.02-12.35,4.39-24.64,6.87-36.9,2.5-12.26,5.08-24.51,7.54-36.78,.48-18.78,8.33-31.75,26.3-40.01,5.53-2.54,10.53-6.24,15.37-10.26,4.85-4.02,9.55-8.34,14.5-12.16,.85-.79,1.7-1.59,2.57-2.4,11.47-13.81,23.71-27.05,31.95-43.23,2.48-4.88,6.36-6.12,11.58-6.02,20.95,.35,41.89,.4,62.86,.55h.01c152.85-8.33,305.05-59.8,416.43-167.31,7.18-6.57,12.7-7.86,21.46-3.63,14.73,7.12,30.13,12.89,45.23,19.24,5.32,2.23,7.85,4.87,2.67,10.22-2.64,2.72-4.44,5.89-5.78,9.28-1.31,3.39-2.14,7.01-2.82,10.67,7.83-5.05,10.3-16.08,20.52-18.48v.03s0-.01,.01-.03c.53-.41,1.14-.65,1.8-.68h.01c4.07-1.18,7.89-1.72,11.51-1.72,14.55,0,25.64,8.8,35.68,20.31,17.7,19.53,43.44,45.04,67.52,18.86,21.71-22.91,18.09-49.09,8.13-76.54,14.14,6.83,25.29,26.6,27.39,45.92Z"/>
      <ellipse class="cls-1" cx="736.15" cy="304.35" rx="3.04" ry="8.69" transform="translate(-35.99 500.2) rotate(-36.69)"/>
      <rect class="cls-7" y="552.12" width="912.53" height="16.68"/>
    </g>
    <ellipse class="cls-9" cx="736.15" cy="304.35" rx="4.85" ry="8.78" transform="translate(-35.99 500.2) rotate(-36.69)"/>
  </g>
</svg>